<svg version="1.1" xmlns="http://www.w3.org/2000/svg" xmlns:xlink="http://www.w3.org/1999/xlink" width="746" height="588"><defs></defs><g><g transform="translate(-318,-190) scale(1,1)"><rect fill="#C0C0C0" stroke="none" x="631" y="383" width="172" height="192" opacity="0.2"></rect></g><g transform="translate(-318,-190) scale(1,1)"><rect fill="#ffffff" stroke="none" x="624" y="376" width="172" height="192"></rect></g><g transform="translate(-318,-190) scale(1,1)"><path fill="none" stroke="#000000" d="M 624 376 L 796 376 L 796 568 L 624 568 L 624 376 Z Z" stroke-miterlimit="10"></path></g><g transform="translate(-318,-190) scale(1,1)"><path fill="none" stroke="#000000" d="M 624 401 L 796 401" stroke-miterlimit="10"></path></g><g transform="translate(-318,-190) scale(1,1)"><path fill="none" stroke="#000000" d="M 624 544 L 796 544" stroke-miterlimit="10"></path></g><g transform="translate(-318,-190) scale(1,1)"><g><path fill="none" stroke="none"></path><text fill="#000000" stroke="none" font-family="Arial" font-size="13px" font-style="normal" font-weight="bold" text-decoration="none" x="696.5" y="395.5">User</text></g></g><g transform="translate(-318,-190) scale(1,1)"><g><path fill="none" stroke="none"></path><text fill="#000000" stroke="none" font-family="Arial" font-size="13px" font-style="normal" font-weight="normal" text-decoration="none" x="629" y="418.5">-id: integer</text></g></g><g transform="translate(-318,-190) scale(1,1)"><g><path fill="none" stroke="none"></path><text fill="#000000" stroke="none" font-family="Arial" font-size="13px" font-style="normal" font-weight="normal" text-decoration="none" x="629" y="433.5">-username: string</text></g></g><g transform="translate(-318,-190) scale(1,1)"><g><path fill="none" stroke="none"></path><text fill="#000000" stroke="none" font-family="Arial" font-size="13px" font-style="normal" font-weight="normal" text-decoration="none" x="629" y="448.5">-encrypted_password: string</text></g></g><g transform="translate(-318,-190) scale(1,1)"><g><path fill="none" stroke="none"></path><text fill="#000000" stroke="none" font-family="Arial" font-size="13px" font-style="normal" font-weight="normal" text-decoration="none" x="629" y="463.5">-email: string</text></g></g><g transform="translate(-318,-190) scale(1,1)"><g><path fill="none" stroke="none"></path><text fill="#000000" stroke="none" font-family="Arial" font-size="13px" font-style="normal" font-weight="normal" text-decoration="none" x="629" y="478.5">-tipo_usuario: string</text></g></g><g transform="translate(-318,-190) scale(1,1)"><g><path fill="none" stroke="none"></path><text fill="#000000" stroke="none" font-family="Arial" font-size="13px" font-style="normal" font-weight="normal" text-decoration="none" x="629" y="493.5">-nombre: string</text></g></g><g transform="translate(-318,-190) scale(1,1)"><g><path fill="none" stroke="none"></path><text fill="#000000" stroke="none" font-family="Arial" font-size="13px" font-style="normal" font-weight="normal" text-decoration="none" x="629" y="508.5">-apellido: string</text></g></g><g transform="translate(-318,-190) scale(1,1)"><g><path fill="none" stroke="none"></path><text fill="#000000" stroke="none" font-family="Arial" font-size="13px" font-style="normal" font-weight="normal" text-decoration="none" x="629" y="523.5">-sexo: string</text></g></g><g transform="translate(-318,-190) scale(1,1)"><g><path fill="none" stroke="none"></path><text fill="#000000" stroke="none" font-family="Arial" font-size="13px" font-style="normal" font-weight="normal" text-decoration="none" x="629" y="538.5">-descripcion: text</text></g></g><g transform="translate(-318,-190) scale(1,1)"><rect fill="#C0C0C0" stroke="none" x="887" y="383" width="174" height="128" opacity="0.2"></rect></g><g transform="translate(-318,-190) scale(1,1)"><rect fill="#ffffff" stroke="none" x="880" y="376" width="174" height="128"></rect></g><g transform="translate(-318,-190) scale(1,1)"><path fill="none" stroke="#000000" d="M 880 376 L 1054 376 L 1054 504 L 880 504 L 880 376 Z Z" stroke-miterlimit="10"></path></g><g transform="translate(-318,-190) scale(1,1)"><path fill="none" stroke="#000000" d="M 880 401 L 1054 401" stroke-miterlimit="10"></path></g><g transform="translate(-318,-190) scale(1,1)"><path fill="none" stroke="#000000" d="M 880 484 L 1054 484" stroke-miterlimit="10"></path></g><g transform="translate(-318,-190) scale(1,1)"><g><path fill="none" stroke="none"></path><text fill="#000000" stroke="none" font-family="Arial" font-size="13px" font-style="normal" font-weight="bold" text-decoration="none" x="953.5" y="395.5">Post</text></g></g><g transform="translate(-318,-190) scale(1,1)"><g><path fill="none" stroke="none"></path><text fill="#000000" stroke="none" font-family="Arial" font-size="13px" font-style="normal" font-weight="normal" text-decoration="none" x="885" y="418.5">-id: integer</text></g></g><g transform="translate(-318,-190) scale(1,1)"><g><path fill="none" stroke="none"></path><text fill="#000000" stroke="none" font-family="Arial" font-size="13px" font-style="normal" font-weight="normal" text-decoration="none" x="885" y="433.5">-contenido: text</text></g></g><g transform="translate(-318,-190) scale(1,1)"><g><path fill="none" stroke="none"></path><text fill="#000000" stroke="none" font-family="Arial" font-size="13px" font-style="normal" font-weight="normal" text-decoration="none" x="885" y="448.5">-tipo_post: string</text></g></g><g transform="translate(-318,-190) scale(1,1)"><g><path fill="none" stroke="none"></path><text fill="#000000" stroke="none" font-family="Arial" font-size="13px" font-style="normal" font-weight="normal" text-decoration="none" x="885" y="463.5">-created_at: datetime</text></g></g><g transform="translate(-318,-190) scale(1,1)"><g><path fill="none" stroke="none"></path><text fill="#000000" stroke="none" font-family="Arial" font-size="13px" font-style="normal" font-weight="normal" text-decoration="none" x="885" y="478.5">-me_gusta: integer</text></g></g><g transform="translate(-318,-190) scale(1,1)"><rect fill="#C0C0C0" stroke="none" x="663" y="207" width="174" height="96" opacity="0.2"></rect></g><g transform="translate(-318,-190) scale(1,1)"><rect fill="#ffffff" stroke="none" x="656" y="200" width="174" height="96"></rect></g><g transform="translate(-318,-190) scale(1,1)"><path fill="none" stroke="#000000" d="M 656 200 L 830 200 L 830 296 L 656 296 L 656 200 Z Z" stroke-miterlimit="10"></path></g><g transform="translate(-318,-190) scale(1,1)"><path fill="none" stroke="#000000" d="M 656 225 L 830 225" stroke-miterlimit="10"></path></g><g transform="translate(-318,-190) scale(1,1)"><path fill="none" stroke="#000000" d="M 656 278 L 830 278" stroke-miterlimit="10"></path></g><g transform="translate(-318,-190) scale(1,1)"><g><path fill="none" stroke="none"></path><text fill="#000000" stroke="none" font-family="Arial" font-size="13px" font-style="normal" font-weight="bold" text-decoration="none" x="715" y="219.5">Comment</text></g></g><g transform="translate(-318,-190) scale(1,1)"><g><path fill="none" stroke="none"></path><text fill="#000000" stroke="none" font-family="Arial" font-size="13px" font-style="normal" font-weight="normal" text-decoration="none" x="661" y="242.5">-id: integer</text></g></g><g transform="translate(-318,-190) scale(1,1)"><g><path fill="none" stroke="none"></path><text fill="#000000" stroke="none" font-family="Arial" font-size="13px" font-style="normal" font-weight="normal" text-decoration="none" x="661" y="257.5">-contenido: text</text></g></g><g transform="translate(-318,-190) scale(1,1)"><g><path fill="none" stroke="none"></path><text fill="#000000" stroke="none" font-family="Arial" font-size="13px" font-style="normal" font-weight="normal" text-decoration="none" x="661" y="272.5">-created_at: datetime</text></g></g><g transform="translate(-318,-190) scale(1,1)"><rect fill="#C0C0C0" stroke="none" x="623" y="663" width="158" height="112" opacity="0.2"></rect></g><g transform="translate(-318,-190) scale(1,1)"><rect fill="#ffffff" stroke="none" x="616" y="656" width="158" height="112"></rect></g><g transform="translate(-318,-190) scale(1,1)"><path fill="none" stroke="#000000" d="M 616 656 L 774 656 L 774 768 L 616 768 L 616 656 Z Z" stroke-miterlimit="10"></path></g><g transform="translate(-318,-190) scale(1,1)"><path fill="none" stroke="#000000" d="M 616 681 L 774 681" stroke-miterlimit="10"></path></g><g transform="translate(-318,-190) scale(1,1)"><path fill="none" stroke="#000000" d="M 616 749 L 774 749" stroke-miterlimit="10"></path></g><g transform="translate(-318,-190) scale(1,1)"><g><path fill="none" stroke="none"></path><text fill="#000000" stroke="none" font-family="Arial" font-size="13px" font-style="normal" font-weight="bold" text-decoration="none" x="671.5" y="675.5">Channel</text></g></g><g transform="translate(-318,-190) scale(1,1)"><g><path fill="none" stroke="none"></path><text fill="#000000" stroke="none" font-family="Arial" font-size="13px" font-style="normal" font-weight="normal" text-decoration="none" x="621" y="698.5">-id: integer</text></g></g><g transform="translate(-318,-190) scale(1,1)"><g><path fill="none" stroke="none"></path><text fill="#000000" stroke="none" font-family="Arial" font-size="13px" font-style="normal" font-weight="normal" text-decoration="none" x="621" y="713.5">-nombre: string</text></g></g><g transform="translate(-318,-190) scale(1,1)"><g><path fill="none" stroke="none"></path><text fill="#000000" stroke="none" font-family="Arial" font-size="13px" font-style="normal" font-weight="normal" text-decoration="none" x="621" y="728.5">-descripcion: text</text></g></g><g transform="translate(-318,-190) scale(1,1)"><g><path fill="none" stroke="none"></path><text fill="#000000" stroke="none" font-family="Arial" font-size="13px" font-style="normal" font-weight="normal" text-decoration="none" x="621" y="743.5">-created_at: datetime</text></g></g><g transform="translate(-318,-190) scale(1,1)"><rect fill="#C0C0C0" stroke="none" x="335" y="519" width="160" height="112" opacity="0.2"></rect></g><g transform="translate(-318,-190) scale(1,1)"><rect fill="#ffffff" stroke="none" x="328" y="512" width="160" height="112"></rect></g><g transform="translate(-318,-190) scale(1,1)"><path fill="none" stroke="#000000" d="M 328 512 L 488 512 L 488 624 L 328 624 L 328 512 Z Z" stroke-miterlimit="10"></path></g><g transform="translate(-318,-190) scale(1,1)"><path fill="none" stroke="#000000" d="M 328 537 L 488 537" stroke-miterlimit="10"></path></g><g transform="translate(-318,-190) scale(1,1)"><path fill="none" stroke="#000000" d="M 328 605 L 488 605" stroke-miterlimit="10"></path></g><g transform="translate(-318,-190) scale(1,1)"><g><path fill="none" stroke="none"></path><text fill="#000000" stroke="none" font-family="Arial" font-size="13px" font-style="normal" font-weight="bold" text-decoration="none" x="394.5" y="531.5">Area</text></g></g><g transform="translate(-318,-190) scale(1,1)"><g><path fill="none" stroke="none"></path><text fill="#000000" stroke="none" font-family="Arial" font-size="13px" font-style="normal" font-weight="normal" text-decoration="none" x="333" y="554.5">-id: integer</text></g></g><g transform="translate(-318,-190) scale(1,1)"><g><path fill="none" stroke="none"></path><text fill="#000000" stroke="none" font-family="Arial" font-size="13px" font-style="normal" font-weight="normal" text-decoration="none" x="333" y="569.5">-nombre: string</text></g></g><g transform="translate(-318,-190) scale(1,1)"><g><path fill="none" stroke="none"></path><text fill="#000000" stroke="none" font-family="Arial" font-size="13px" font-style="normal" font-weight="normal" text-decoration="none" x="333" y="584.5">-descripcion: text</text></g></g><g transform="translate(-318,-190) scale(1,1)"><g><path fill="none" stroke="none"></path><text fill="#000000" stroke="none" font-family="Arial" font-size="13px" font-style="normal" font-weight="normal" text-decoration="none" x="333" y="599.5">-created_at: datetime</text></g></g><g transform="translate(-318,-190) scale(1,1)"><path fill="none" stroke="#000000" d="M 616 712 L 400 712 L 400 624" stroke-miterlimit="10"></path></g><g transform="translate(-318,-190) scale(1,1)"><g><path fill="none" stroke="none"></path><text fill="#000000" stroke="none" font-family="Arial" font-size="13px" font-style="normal" font-weight="normal" text-decoration="none" x="583.5" y="707.5">1..*</text></g></g><g transform="translate(-318,-190) scale(1,1)"><g><path fill="none" stroke="none"></path><text fill="#000000" stroke="none" font-family="Arial" font-size="13px" font-style="normal" font-weight="normal" text-decoration="none" x="374.5" y="644.5">0..*</text></g></g><g transform="translate(-318,-190) scale(1,1)"><path fill="none" stroke="#000000" d="M 796 448 L 880 448" stroke-miterlimit="10"></path></g><g transform="translate(-318,-190) scale(1,1)"><g><path fill="none" stroke="none"></path><text fill="#000000" stroke="none" font-family="Arial" font-size="13px" font-style="normal" font-weight="normal" text-decoration="none" x="813" y="466.5">1</text></g></g><g transform="translate(-318,-190) scale(1,1)"><g><path fill="none" stroke="none"></path><text fill="#000000" stroke="none" font-family="Arial" font-size="13px" font-style="normal" font-weight="normal" text-decoration="none" x="846.5" y="443.5">0..*</text></g></g><g transform="translate(-318,-190) scale(1,1)"><path fill="none" stroke="#000000" d="M 712 376 L 712 296" stroke-miterlimit="10"></path></g><g transform="translate(-318,-190) scale(1,1)"><g><path fill="none" stroke="none"></path><text fill="#000000" stroke="none" font-family="Arial" font-size="13px" font-style="normal" font-weight="normal" text-decoration="none" x="720.5" y="360.5">1</text></g></g><g transform="translate(-318,-190) scale(1,1)"><g><path fill="none" stroke="none"></path><text fill="#000000" stroke="none" font-family="Arial" font-size="13px" font-style="normal" font-weight="normal" text-decoration="none" x="686.5" y="323.5">0..*</text></g></g><g transform="translate(-318,-190) scale(1,1)"><path fill="none" stroke="#000000" d="M 696 568 L 696 656" stroke-miterlimit="10"></path></g><g transform="translate(-318,-190) scale(1,1)"><g><path fill="none" stroke="none"></path><text fill="#000000" stroke="none" font-family="Arial" font-size="13px" font-style="normal" font-weight="normal" text-decoration="none" x="709" y="595.5">1</text></g></g><g transform="translate(-318,-190) scale(1,1)"><g><path fill="none" stroke="none"></path><text fill="#000000" stroke="none" font-family="Arial" font-size="13px" font-style="normal" font-weight="normal" text-decoration="none" x="670.5" y="643.5">0..*</text></g></g><g transform="translate(-318,-190) scale(1,1)"><path fill="none" stroke="#000000" d="M 976 376 L 976 248 L 830 248" stroke-miterlimit="10"></path></g><g transform="translate(-318,-190) scale(1,1)"><g><path fill="none" stroke="none"></path><text fill="#000000" stroke="none" font-family="Arial" font-size="13px" font-style="normal" font-weight="normal" text-decoration="none" x="959.5" y="359.5">1</text></g></g><g transform="translate(-318,-190) scale(1,1)"><g><path fill="none" stroke="none"></path><text fill="#000000" stroke="none" font-family="Arial" font-size="13px" font-style="normal" font-weight="normal" text-decoration="none" x="840.5" y="241.5">0..*</text></g></g><g transform="translate(-318,-190) scale(1,1)"><path fill="none" stroke="#000000" d="M 774 712 L 976 712 L 976 504" stroke-miterlimit="10"></path></g><g transform="translate(-318,-190) scale(1,1)"><g><path fill="none" stroke="none"></path><text fill="#000000" stroke="none" font-family="Arial" font-size="13px" font-style="normal" font-weight="normal" text-decoration="none" x="791" y="730.5">1</text></g></g><g transform="translate(-318,-190) scale(1,1)"><g><path fill="none" stroke="none"></path><text fill="#000000" stroke="none" font-family="Arial" font-size="13px" font-style="normal" font-weight="normal" text-decoration="none" x="950.5" y="531.5">0..*</text></g></g><g transform="translate(-318,-190) scale(1,1)"><rect fill="#C0C0C0" stroke="none" x="351" y="247" width="144" height="72" opacity="0.2"></rect></g><g transform="translate(-318,-190) scale(1,1)"><rect fill="#ffffff" stroke="none" x="344" y="240" width="144" height="72"></rect></g><g transform="translate(-318,-190) scale(1,1)"><path fill="none" stroke="#000000" d="M 344 240 L 488 240 L 488 312 L 344 312 L 344 240 Z Z" stroke-miterlimit="10"></path></g><g transform="translate(-318,-190) scale(1,1)"><path fill="none" stroke="#000000" d="M 344 265 L 488 265" stroke-miterlimit="10"></path></g><g transform="translate(-318,-190) scale(1,1)"><path fill="none" stroke="#000000" d="M 344 288 L 488 288" stroke-miterlimit="10"></path></g><g transform="translate(-318,-190) scale(1,1)"><g><path fill="none" stroke="none"></path><text fill="#000000" stroke="none" font-family="Arial" font-size="13px" font-style="normal" font-weight="bold" text-decoration="none" x="392" y="259.5">Follower</text></g></g><g transform="translate(-318,-190) scale(1,1)"><g><path fill="none" stroke="none"></path><text fill="#000000" stroke="none" font-family="Arial" font-size="13px" font-style="normal" font-weight="normal" text-decoration="none" x="349" y="282.5">-follower_id: integer</text></g></g><g transform="translate(-318,-190) scale(1,1)"><path fill="none" stroke="#000000" d="M 640 376 L 640 352 L 416 352 L 416 312" stroke-miterlimit="10"></path></g><g transform="translate(-318,-190) scale(1,1)"><g><path fill="none" stroke="none"></path><text fill="#000000" stroke="none" font-family="Arial" font-size="13px" font-style="normal" font-weight="normal" text-decoration="none" x="621.5" y="372.5">1</text></g></g><g transform="translate(-318,-190) scale(1,1)"><g><path fill="none" stroke="none"></path><text fill="#000000" stroke="none" font-family="Arial" font-size="13px" font-style="normal" font-weight="normal" text-decoration="none" x="422.5" y="331.5">0..*</text></g></g><g transform="translate(-318,-190) scale(1,1)"><rect fill="#C0C0C0" stroke="none" x="351" y="399" width="127" height="72" opacity="0.2"></rect></g><g transform="translate(-318,-190) scale(1,1)"><rect fill="#ffffff" stroke="none" x="344" y="392" width="127" height="72"></rect></g><g transform="translate(-318,-190) scale(1,1)"><path fill="none" stroke="#000000" d="M 344 392 L 471 392 L 471 464 L 344 464 L 344 392 Z Z" stroke-miterlimit="10"></path></g><g transform="translate(-318,-190) scale(1,1)"><path fill="none" stroke="#000000" d="M 344 417 L 471 417" stroke-miterlimit="10"></path></g><g transform="translate(-318,-190) scale(1,1)"><path fill="none" stroke="#000000" d="M 344 440 L 471 440" stroke-miterlimit="10"></path></g><g transform="translate(-318,-190) scale(1,1)"><g><path fill="none" stroke="none"></path><text fill="#000000" stroke="none" font-family="Arial" font-size="13px" font-style="normal" font-weight="bold" text-decoration="none" x="380.5" y="411.5">Following</text></g></g><g transform="translate(-318,-190) scale(1,1)"><g><path fill="none" stroke="none"></path><text fill="#000000" stroke="none" font-family="Arial" font-size="13px" font-style="normal" font-weight="normal" text-decoration="none" x="349" y="434.5">-followed_id: integer</text></g></g><g transform="translate(-318,-190) scale(1,1)"><path fill="none" stroke="#000000" d="M 471 440 L 624 440" stroke-miterlimit="10"></path></g><g transform="translate(-318,-190) scale(1,1)"><g><path fill="none" stroke="none"></path><text fill="#000000" stroke="none" font-family="Arial" font-size="13px" font-style="normal" font-weight="normal" text-decoration="none" x="480.5" y="433.5">0..*</text></g></g><g transform="translate(-318,-190) scale(1,1)"><g><path fill="none" stroke="none"></path><text fill="#000000" stroke="none" font-family="Arial" font-size="13px" font-style="normal" font-weight="normal" text-decoration="none" x="598.5" y="458.5">1</text></g></g><g transform="translate(-318,-190) scale(1,1)"><path fill="none" stroke="#000000" d="M 624 552 L 488 552" stroke-miterlimit="10"></path></g><g transform="translate(-318,-190) scale(1,1)"><g><path fill="none" stroke="none"></path><text fill="#000000" stroke="none" font-family="Arial" font-size="13px" font-style="normal" font-weight="normal" text-decoration="none" x="590.5" y="572.5">0..*</text></g></g><g transform="translate(-318,-190) scale(1,1)"><g><path fill="none" stroke="none"></path><text fill="#000000" stroke="none" font-family="Arial" font-size="13px" font-style="normal" font-weight="normal" text-decoration="none" x="498.5" y="545.5">1..*</text></g></g></g></svg>